<svg width="24" height="24" viewBox="0 0 24 24" fill="none" xmlns="http://www.w3.org/2000/svg">
<path d="M18.9346 9.10111C20.2577 7.77797 20.2809 6.02749 19.3766 5.12313C18.4634 4.21001 16.7098 4.25389 15.3985 5.56522C15.3784 5.58534 15.2471 5.73049 13.4706 7.71006L11.4075 6.88476L11.6988 6.59344C11.9429 6.34935 11.9429 5.95355 11.6988 5.70945C11.4547 5.46533 11.0589 5.46533 10.8148 5.70945L10.1446 6.37963L8.88181 5.87451L9.17309 5.58319C9.41721 5.33906 9.41721 4.94329 9.17309 4.6992C8.92897 4.45507 8.53321 4.45507 8.28912 4.6992L7.61895 5.36935L6.73882 5.01727C6.5067 4.92438 6.24148 4.97883 6.06468 5.15563L4.38324 6.83713C4.1144 7.10598 4.14603 7.55107 4.45019 7.77919L9.80507 11.7954C8.9926 12.701 8.30587 13.4663 7.92514 13.8904L6.00767 13.2403C5.77093 13.16 5.50918 13.2285 5.3421 13.4144L4.16015 14.7292C3.92944 14.9859 3.95051 15.3813 4.20713 15.612L6.27652 17.4723L5.55712 18.1917C5.313 18.4358 5.313 18.8316 5.55712 19.0757C5.80124 19.3198 6.19701 19.3198 6.4411 19.0757L7.20756 18.3092L9.46641 20.3398C9.72316 20.5706 10.1184 20.5495 10.3492 20.2928L11.5311 18.978C11.708 18.7812 11.7418 18.4944 11.6156 18.2619C11.6156 18.2619 11.0149 17.1555 10.6701 16.5203C11.1037 16.131 11.8388 15.4714 12.7014 14.6974L16.7009 20.0302C16.9291 20.3344 17.374 20.3661 17.643 20.0971L19.3244 18.4156C19.5012 18.2388 19.5556 17.9736 19.4628 17.7415L19.1107 16.8613L19.7808 16.1912C20.025 15.9471 20.025 15.5513 19.7809 15.3072C19.5367 15.0631 19.141 15.0631 18.8969 15.3072L18.6056 15.5985L18.1004 14.3356L18.7706 13.6654C19.0147 13.4213 19.0147 13.0255 18.7706 12.7814C18.5265 12.5373 18.1307 12.5373 17.8866 12.7814L17.5953 13.0727L16.781 11.0369C18.7687 9.2531 18.9144 9.12127 18.9346 9.10111ZM6.65722 6.33106L12.5815 8.70084C12.0448 9.29901 11.405 10.0121 10.6431 10.8613L5.77684 7.21149L6.65722 6.33106ZM9.46728 15.9202C9.25238 16.1136 9.1981 16.4292 9.33608 16.6832C9.36224 16.7314 9.9739 17.8581 10.3063 18.4704L9.83736 18.9921L8.09285 17.4239L8.51224 17.0045C8.75636 16.7604 8.75636 16.3646 8.51224 16.1206C8.26812 15.8765 7.87235 15.8764 7.62826 16.1206L7.1618 16.587L5.50777 15.1001L5.99642 14.5565L7.91401 15.2067C8.15067 15.2869 8.41229 15.2185 8.5794 15.0328L16.2913 6.44045C17.0095 5.72877 18.0153 5.52987 18.4926 6.00712C18.9912 6.50574 18.7347 7.52675 18.0593 8.2084L9.46728 15.9202ZM18.149 17.8231L17.2686 18.7034L13.6356 13.8593C14.4819 13.1 15.1932 12.4618 15.7902 11.926L18.149 17.8231Z" fill="#E30B13"/>
</svg>
