<svg width="24" height="24" viewBox="0 0 24 24" fill="none" xmlns="http://www.w3.org/2000/svg">
<path d="M21 9.5C20.2969 8.21429 19.2857 6.92857 18 6.5H5.10938C3.94627 6.5 3 7.50935 3 8.75V16.25C3 16.6642 3.31479 17 3.70312 17H4.52719C4.81744 17.8729 5.599 18.5 6.51562 18.5C7.43225 18.5 8.21378 17.8729 8.50406 17H15.496C15.7862 17.8729 16.5678 18.5 17.4844 18.5C18.401 18.5 19.1826 17.8729 19.4728 17H20.2969C20.685 17 21 16.6642 21 16.25C21 16.1344 21.0001 10.25 21 9.5ZM19.5938 9.92857L19.5937 11.129C19.3736 11.0457 19.1371 11 18.8906 11C18.5707 11 17.3357 11 16.7812 11V8H17.7465C18.1342 8 19.5938 9.51502 19.5938 9.92857ZM12.7031 11V8H15.375V11H12.7031ZM8.625 11V8H11.2969V11H8.625ZM5.10938 8H7.21875V11H4.40625V8.75C4.40625 8.33645 4.72167 8 5.10938 8ZM6.51562 17C6.12792 17 5.8125 16.6636 5.8125 16.25C5.8125 15.8365 6.12792 15.5 6.51562 15.5C6.90333 15.5 7.21875 15.8365 7.21875 16.25C7.21875 16.6636 6.90333 17 6.51562 17ZM17.4844 17C17.0967 17 16.7812 16.6636 16.7812 16.25C16.7812 15.8365 17.0967 15.5 17.4844 15.5C17.8721 15.5 18.1875 15.8365 18.1875 16.25C18.1875 16.6636 17.8721 17 17.4844 17ZM19.4728 15.5C19.1826 14.6271 18.401 14 17.4844 14C16.5677 14 15.7862 14.6271 15.4959 15.5H8.50406C8.21381 14.6271 7.43225 14 6.51562 14C5.599 14 4.81747 14.6271 4.52719 15.5H4.40625V12.5H18.8906C19.2781 12.5 19.5933 12.8361 19.5937 13.2493L19.5938 15.5H19.4728Z" fill="#E30B13"/>
</svg>
