<svg width="24" height="24" viewBox="0 0 24 24" fill="none" xmlns="http://www.w3.org/2000/svg">
<path d="M3.5 19.5V13.5C3.5 13.05 3.5825 12.6417 3.7475 12.275C3.9125 11.9083 4.13 11.5833 4.4 11.3V8.5C4.4 7.66667 4.6625 6.95833 5.1875 6.375C5.7125 5.79167 6.35 5.5 7.1 5.5H10.7C11.045 5.5 11.3675 5.571 11.6675 5.713C11.9675 5.855 12.245 6.05067 12.5 6.3C12.755 6.05 13.0325 5.85433 13.3325 5.713C13.6325 5.57167 13.955 5.50067 14.3 5.5H17.9C18.65 5.5 19.2875 5.79167 19.8125 6.375C20.3375 6.95833 20.6 7.66667 20.6 8.5V11.3C20.87 11.5833 21.0875 11.9083 21.2525 12.275C21.4175 12.6417 21.5 13.05 21.5 13.5V19.5H19.7V17.5H5.3V19.5H3.5ZM13.4 10.5H18.8V8.5C18.8 8.21667 18.7136 7.979 18.5408 7.787C18.368 7.595 18.1544 7.49933 17.9 7.5H14.3C14.045 7.5 13.8311 7.596 13.6583 7.788C13.4855 7.98 13.3994 8.21733 13.4 8.5V10.5ZM6.2 10.5H11.6V8.5C11.6 8.21667 11.5136 7.979 11.3408 7.787C11.168 7.595 10.9544 7.49933 10.7 7.5H7.1C6.845 7.5 6.6311 7.596 6.4583 7.788C6.2855 7.98 6.1994 8.21733 6.2 8.5V10.5Z" fill="#E30B13"/>
</svg>
