<svg width="24" height="24" viewBox="0 0 24 24" fill="none" xmlns="http://www.w3.org/2000/svg">
<path d="M7.71859 4.06701C7.69931 4.7844 7.67617 4.88468 7.44475 5.37065C7.2789 5.71778 6.76208 6.2346 6.41496 6.40045C5.89813 6.64729 5.85184 6.65501 4.90304 6.67429L4.02367 6.68972V8.34434V9.99896H3.21371H2.3999L2.41147 12.3401C2.42304 14.6774 2.42304 14.6851 2.51175 14.9242C2.77788 15.6378 3.32556 16.1893 4.04295 16.4593L4.3515 16.575L10.5226 16.5866C14.9349 16.5943 16.7978 16.5866 17.0601 16.5557C19.4359 16.2742 21.3991 14.5617 21.9738 12.2745C22.1165 11.7076 22.1512 11.4067 22.1512 10.6778V9.99896H20.89H19.6249L19.5362 9.67883C19.1621 8.32891 18.0011 7.1834 16.6512 6.83243C16.4815 6.79 16.1537 6.736 15.9223 6.71286L15.498 6.66658L15.4093 6.35802C15.12 5.31666 14.3525 4.38328 13.3883 3.88188C13.0141 3.68904 12.8599 3.63118 12.4317 3.51162C12.1579 3.43062 12.0383 3.42677 9.94018 3.41519L7.73402 3.39977L7.71859 4.06701ZM11.6218 5.10067C11.8031 5.11995 12.0615 5.17009 12.2003 5.21252C12.8213 5.40536 13.4384 5.96076 13.6814 6.5393L13.7392 6.682H11.1744H8.60954L8.72139 6.51616C8.97595 6.14589 9.14565 5.74863 9.33079 5.10838C9.34621 5.05053 11.1011 5.04281 11.6218 5.10067ZM16.0688 8.4369C16.7978 8.59118 17.4882 9.14272 17.7813 9.80611L17.8661 9.99896H11.7915H5.72071V9.189V8.37905H10.7656C15.012 8.37905 15.849 8.39062 16.0688 8.4369ZM20.377 11.7114C20.377 11.8156 20.2112 12.2977 20.0877 12.5638C19.8872 12.9804 19.675 13.2851 19.3356 13.6399C18.6067 14.3997 17.7234 14.8085 16.6242 14.8972C16.2848 14.9242 14.2252 14.9358 10.4069 14.9281C4.94161 14.9165 4.69091 14.9127 4.55592 14.8432C4.36307 14.7507 4.1548 14.5116 4.10466 14.3303C4.07766 14.2416 4.06223 13.6939 4.06223 12.9186V11.6574H12.2196C19.1698 11.6574 20.377 11.6651 20.377 11.7114Z" fill="#E30B13"/>
<path d="M20.9998 16.4643C20.4562 16.4643 20.227 16.3169 19.8799 16.0938C19.4684 15.8292 18.9562 15.5 17.9996 15.5C17.0431 15.5 16.5309 15.8292 16.1194 16.0938C15.7724 16.3169 15.543 16.4643 14.9995 16.4643C14.4561 16.4643 14.2268 16.3169 13.8798 16.0939C13.4683 15.8293 12.9561 15.5 11.9996 15.5C11.0431 15.5 10.5309 15.8293 10.1195 16.0939C9.77245 16.3169 9.54319 16.4643 8.99977 16.4643C8.4563 16.4643 8.22708 16.3169 7.88002 16.0939C7.4685 15.8293 6.95634 15.5 5.99981 15.5C5.04328 15.5 4.53113 15.8293 4.11961 16.0939C3.77259 16.3169 3.54333 16.4643 2.99986 16.4643C2.45639 16.4643 2.22717 16.3169 1.88011 16.0939C1.46864 15.8293 0.956437 15.5 0 15.5V16.9063C0.543422 16.9063 0.772641 17.0537 1.1197 17.2767C1.53122 17.5413 2.04338 17.8706 2.99986 17.8706C3.95634 17.8706 4.4685 17.5413 4.88002 17.2767C5.22703 17.0537 5.4563 16.9063 5.99981 16.9063C6.54333 16.9063 6.77255 17.0537 7.11961 17.2767C7.53112 17.5414 8.04328 17.8706 8.99977 17.8706C9.95625 17.8706 10.4684 17.5413 10.8799 17.2767C11.2269 17.0537 11.4562 16.9063 11.9996 16.9063C12.5431 16.9063 12.7723 17.0537 13.1194 17.2767C13.5309 17.5414 14.043 17.8706 14.9995 17.8706C15.9561 17.8706 16.4683 17.5413 16.8798 17.2767C17.2268 17.0536 17.4561 16.9062 17.9996 16.9062C18.5432 16.9062 18.7725 17.0536 19.1195 17.2767C19.5311 17.5413 20.0433 17.8706 20.9998 17.8706C21.9563 17.8706 22.4685 17.5413 22.8801 17.2767C23.2271 17.0536 23.4564 16.9062 24 16.9062V15.5C23.0435 15.5 22.5313 15.8292 22.1197 16.0938C21.7726 16.3169 21.5434 16.4643 20.9998 16.4643Z" fill="#E30B13"/>
<path d="M20.9998 19.4643C20.4562 19.4643 20.227 19.3169 19.8799 19.0938C19.4684 18.8292 18.9562 18.5 17.9996 18.5C17.0431 18.5 16.5309 18.8292 16.1194 19.0938C15.7724 19.3169 15.543 19.4643 14.9995 19.4643C14.4561 19.4643 14.2268 19.3169 13.8798 19.0939C13.4683 18.8293 12.9561 18.5 11.9996 18.5C11.0431 18.5 10.5309 18.8293 10.1195 19.0939C9.77245 19.3169 9.54319 19.4643 8.99977 19.4643C8.4563 19.4643 8.22708 19.3169 7.88002 19.0939C7.4685 18.8293 6.95634 18.5 5.99981 18.5C5.04328 18.5 4.53113 18.8293 4.11961 19.0939C3.77259 19.3169 3.54333 19.4643 2.99986 19.4643C2.45639 19.4643 2.22717 19.3169 1.88011 19.0939C1.46864 18.8293 0.956437 18.5 0 18.5V19.9063C0.543422 19.9063 0.772641 20.0537 1.1197 20.2767C1.53122 20.5413 2.04338 20.8706 2.99986 20.8706C3.95634 20.8706 4.4685 20.5413 4.88002 20.2767C5.22703 20.0537 5.4563 19.9063 5.99981 19.9063C6.54333 19.9063 6.77255 20.0537 7.11961 20.2767C7.53112 20.5414 8.04328 20.8706 8.99977 20.8706C9.95625 20.8706 10.4684 20.5413 10.8799 20.2767C11.2269 20.0537 11.4562 19.9063 11.9996 19.9063C12.5431 19.9063 12.7723 20.0537 13.1194 20.2767C13.5309 20.5414 14.043 20.8706 14.9995 20.8706C15.9561 20.8706 16.4683 20.5413 16.8798 20.2767C17.2268 20.0536 17.4561 19.9062 17.9996 19.9062C18.5432 19.9062 18.7725 20.0536 19.1195 20.2767C19.5311 20.5413 20.0433 20.8706 20.9998 20.8706C21.9563 20.8706 22.4685 20.5413 22.8801 20.2767C23.2271 20.0536 23.4564 19.9062 24 19.9062V18.5C23.0435 18.5 22.5313 18.8292 22.1197 19.0938C21.7726 19.3169 21.5434 19.4643 20.9998 19.4643Z" fill="#E30B13"/>
</svg>
